<svg xmlns="http://www.w3.org/2000/svg" width="156" height="156" viewBox="0 0 156 156">
  <g id="Group_1035" data-name="Group 1035" transform="translate(-110 23)">
    <circle id="Ellipse_2" data-name="Ellipse 2" cx="78" cy="78" r="78" transform="translate(110 -23)" fill="#fff"/>
    <g id="pearl-logo-white" transform="translate(132.798 13.645)">
      <path id="Fill-1" d="M56.7,137.661h1.313c1.461,0,1.784-.372,1.784-1.932V130.2c0-1.536-.3-1.932-1.784-1.932H56.7Zm3.84-7.21V135.8c0,1.734-.694,2.428-2.354,2.428H56.7v7.234h-.743v-7.234H54.694v-.57h1.263v-9.984h2.229c1.982,0,2.354.818,2.354,2.775Z" transform="translate(-34.061 -79.792)" fill="#0d0c0a" stroke="#0d0c0a" stroke-linecap="square" stroke-width="1" fill-rule="evenodd"/>
      <path id="Fill-2" d="M100.92,145.465H96.411v-7.234H95.148v-.57h1.263v-9.984h4.509v.595H97.155v9.39h3.766v.57H97.155V144.9h3.766v.57" transform="translate(-59.254 -79.792)" fill="#0d0c0a" stroke="#0d0c0a" stroke-linecap="square" stroke-width="1" fill-rule="evenodd"/>
      <path id="Fill-3" d="M137.15,137.376h3.1v-7.507c0-1.388-.347-2.056-1.561-2.056s-1.536.693-1.536,2.056Zm-.743.57h-1.263v-.57h1.263v-7.457c0-1.808.595-2.7,2.279-2.7s2.3.892,2.3,2.7v15.261h-.743v-7.234h-3.1v7.234h-.743v-7.234Z" transform="translate(-84.162 -79.507)" fill="#0d0c0a" stroke="#0d0c0a" stroke-linecap="square" stroke-width="1" fill-rule="evenodd"/>
      <path id="Fill-4" d="M181.029,130.2c0-1.536-.3-1.932-1.783-1.932h-1.313v9.39h1.313c1.461,0,1.783-.372,1.783-1.932Zm.744.248V135.8c0,1.214-.347,1.858-1.288,2.155.941.322,1.288.941,1.288,2.155v2.824c0,1.388.272,1.957,1.61,1.957v.57h-.074c-1.586,0-2.279-.768-2.279-2.453v-2.824c0-1.536-.3-1.957-1.783-1.957h-1.313v7.234h-.743v-7.234h-1.263v-.57h1.263v-9.984h2.229c1.982,0,2.354.818,2.354,2.775Z" transform="translate(-109.56 -79.792)" fill="#0d0c0a" stroke="#0d0c0a" stroke-linecap="square" stroke-width="1" fill-rule="evenodd"/>
      <path id="Fill-5" d="M221.24,127.677h.744V144.9h3.79v.57H221.24V127.677" transform="translate(-137.78 -79.792)" fill="#0d0c0a" stroke="#0d0c0a" stroke-linecap="square" stroke-width="1" fill-rule="evenodd"/>
      <path id="Fill-6" d="M113.279,81.534h3.162v.391H115.1V93.239h-.489V81.925h-1.337v-.391" transform="translate(-70.546 -51.058)" fill="#0d0c0a" stroke="#0d0c0a" stroke-linecap="square" stroke-width="1" fill-rule="evenodd"/>
      <path id="Fill-7" d="M138.046,88.479h-.832V88.1h.832v-6.57h.489V88.1h2.037v-6.57h.489V93.239h-.489v-4.76h-2.037v4.76h-.489v-4.76" transform="translate(-85.452 -51.058)" fill="#0d0c0a" stroke="#0d0c0a" stroke-linecap="square" stroke-width="1" fill-rule="evenodd"/>
      <g id="Group-11">
        <path id="Fill-8" d="M167.844,93.239h-2.967v-4.76h-.831V88.1h.831v-6.57h2.967v.391h-2.478V88.1h2.478v.375h-2.478v4.385h2.478v.375" transform="translate(-102.161 -51.058)" fill="#0d0c0a" stroke="#0d0c0a" stroke-linecap="square" stroke-width="1" fill-rule="evenodd"/>
        <path id="Fill-10" d="M36.426,101.769h0Zm-.1-.026h.1v.026Zm35.026-2.826.207.233-1.763.518a19.306,19.306,0,0,1-5.833.752l.259.129v.026c-.789.534-1.3.246-2.152.078l-.026-.025V100.6a37.36,37.36,0,0,1,4.952-1.011l2.125-.1,1.53-.7A1.672,1.672,0,0,1,71.347,98.917Zm-29.4-.389.026.052-.182.077.13.26-1.063-.545Zm38.526-4.8h.051a7.424,7.424,0,0,1-2,.959Zm.337-.156h0Zm1.478-.492h0Zm.077-.026h0Zm.1-.026h0ZM82.547,93h0Zm.1-.026h0Zm-.83-.026c.02.067-.039.065-.077.208l.259.026c-.355.065-.838.425-1.141.363Zm.363-.259h0Zm.286-.182h.052l-.286.182.052-.078Zm.052-.026h0Zm2.826-1.634h0ZM87.5,89.427c-.063.513-1.536,1.254-2.1,1.426Zm3.629-.7h.052q-.726.622-1.452,1.245c-.871.694-1.634,1.527-2.515,2.23A65.521,65.521,0,0,1,79.8,97.62a51.457,51.457,0,0,1-7.44,3.4,52.913,52.913,0,0,1-5.237,1.633,5.722,5.722,0,0,1-2.438.441v-.026c.009-.026.017-.052.026-.078,1.112-.57,2.294-1.056,3.5-1.581q1.374-.583,2.748-1.168c.946-.292,2.312-.045,3.188-.388a41.621,41.621,0,0,0,6.612-3.656c.566-.346.81.062,1.271-.078l.57-.363c1.759-1.239,3.114-2.863,4.769-4.174l2.36-1.763A6.766,6.766,0,0,0,91.129,88.727Zm.156-.13h.052l-.156.13Zm.155-.129h.052l-.078.051Zm-70.1.389a8.271,8.271,0,0,1-3.4-3.526A8.734,8.734,0,0,1,21.337,88.857Zm81.3-16.127a8.22,8.22,0,0,1-1.115,2.023c-.871,1.422-1.81,2.684-2.748,3.993-.46.642-.627,1.277-1.374,1.763l2.2-3.112,1.867-2.67C101.883,74.057,102.188,73.34,102.639,72.73Zm2.956-43.272v0Zm0-.026-.026-.052Zm-.233-.83.025.052Zm0-.026-.026-.052Zm-.052-.155c.008.017.017.035.026.052C105.327,28.455,105.318,28.438,105.31,28.42ZM62.455.755C75.6.627,84.189,4.132,91.388,9.908c2.28,1.829,4.071,4.448,5.833,6.793a70.784,70.784,0,0,1,6.327,9.749l1.5,3.085c.16.332.318.968.675,1.089v-.052c.119-.289-.074-.72-.1-1.011h.026l.752,3.189c.312,1.32.38,2.729.622,4.122.189,1.087,0,2.182.181,3.345v2.048c-.149.919.018,1.794-.13,2.645a51.728,51.728,0,0,1-1.27,6.274c-.386,1.256-.714,2.493-1.167,3.656a2.6,2.6,0,0,1-.363.882h-.026V55.67q-.025-.479-.051-.959V51.651q-.04-.882-.078-1.763-.065-1.1-.13-2.2c-.26-1.624-.215-3.259-.544-4.771a46.874,46.874,0,0,0-2.022-7.312,42.066,42.066,0,0,0-6.715-10.864c-.8-1.013-1.764-1.882-2.566-2.878q-.585-.609-1.166-1.219l-2.515-2.178a52.269,52.269,0,0,0-5.081-3.4c-4.707-2.766-10.31-4.4-16.437-5.756-1.784-.394-3.6-.478-5.5-.8A50.115,50.115,0,0,0,53.8,8.041l-3.007.052c-1.48.239-2.955.063-4.356.311a72.5,72.5,0,0,0-8.815,1.763C26.945,13.5,19.118,19.6,13.741,28.212a62.812,62.812,0,0,0-6.2,14.65,66.46,66.46,0,0,0-1.452,7.519c-.226,1.212-.06,2.441-.26,3.734A14.225,14.225,0,0,0,5.859,57.8c.164,1.014.035,1.91.207,2.878a56.857,56.857,0,0,0,1.348,6.533C10.923,78.667,18.078,86.38,27.3,92.124c.826.515,1.7.97,2.566,1.478a10.349,10.349,0,0,0,.986.6,5.193,5.193,0,0,1,.985.415,6.876,6.876,0,0,0,1.348,1.011,34.39,34.39,0,0,0,3.423,1.063l2.54.907c1.17.37,2.428.651,3.552,1.063l3.215.649c.506.152.957.474,1.426.622a2.523,2.523,0,0,0,1.374-.155l2.2.233,3.4.259h.933a14.337,14.337,0,0,0,3.6-.052q.96-.05,1.919-.1c1.684-.274,3.36-.315,4.952-.648l2.515-.544,2.722-.181a6.931,6.931,0,0,1,2.1-.1,3.683,3.683,0,0,0-1.426.6l-1.789.674c-1.855.735-3.865,1.186-5.833,1.789a75.59,75.59,0,0,1-8.426,1.711,12.235,12.235,0,0,1-3.63-.259c-1.7-.359-3.219-.493-4.926-.8l-2.152.1a16.619,16.619,0,0,1-5.236-.181c-.207-.29-.307-.752-.623-.934l-1.737-.285c-1.315-.276-2.661-.412-3.889-.778A9.949,9.949,0,0,1,30.644,99.2c-.708-.5-1.214-1.252-1.97-1.711l-2.722-.985-3.059-1.038c-.235-.08-.848-.327-1.089-.155.475.786,2.163,1.426,3.007,1.92a53.093,53.093,0,0,0,7.519,3.292l3.992,1.219a8.181,8.181,0,0,1-1.892-.441c-1.169-.35-2.291-.63-3.371-1.011a39.726,39.726,0,0,1-9.9-5.03c-1.337-.949-2.492-2.118-3.759-3.137l-1.089-1.09q-1.361-1.321-2.722-2.644l-1.348-1.426A22,22,0,0,1,9.022,83.62c-.788-.986-1.668-1.915-2.411-2.956a34.931,34.931,0,0,1-5-9.878c-.346-1.1-.528-2.215-.8-3.4C.432,65.8.368,64.036.078,62.281Q.039,61.206,0,60.129V58.107c.192-1.183-.01-2.314.182-3.423.412-2.387.612-4.643,1.166-6.819A57.79,57.79,0,0,1,5.756,35.939a76.564,76.564,0,0,1,7.311-11.953c7.37-9.6,18.666-16.515,31.551-20.586a77.01,77.01,0,0,1,7.934-1.738l3.681-.492L60.614.807,62.455.755Z" transform="translate(0 -0.752)" fill="#0d0c0a" fill-rule="evenodd"/>
      </g>
    </g>
  </g>
</svg>
